STARTFONT 2.1
COMMENT Recovered from sail10.ast (MIT CADR textual AST font source)
FONT MIT-CADR-SAIL10
SIZE 12 72 72
FONTBOUNDINGBOX 7 12 0 -3
STARTPROPERTIES 2
FONT_ASCENT 9
FONT_DESCENT 3
ENDPROPERTIES
CHARS 122
STARTCHAR C0001
ENCODING -1 1
SWIDTH 583 0
DWIDTH 7 0
BBX 5 12 1 -3
BITMAP
00
00
00
20
20
20
A8
70
20
00
00
00
ENDCHAR
STARTCHAR C0002
ENCODING -1 2
SWIDTH 583 0
DWIDTH 7 0
BBX 5 12 1 -3
BITMAP
00
00
00
00
68
98
90
90
68
00
00
00
ENDCHAR
STARTCHAR C0003
ENCODING -1 3
SWIDTH 583 0
DWIDTH 7 0
BBX 6 12 0 -3
BITMAP
00
18
24
24
38
44
44
44
78
80
80
00
ENDCHAR
STARTCHAR C0004
ENCODING -1 4
SWIDTH 583 0
DWIDTH 7 0
BBX 5 12 1 -3
BITMAP
00
00
00
20
20
50
50
88
88
00
00
00
ENDCHAR
STARTCHAR C0005
ENCODING -1 5
SWIDTH 583 0
DWIDTH 7 0
BBX 5 12 1 -3
BITMAP
00
00
00
00
F8
08
00
00
00
00
00
00
ENDCHAR
STARTCHAR C0006
ENCODING -1 6
SWIDTH 583 0
DWIDTH 7 0
BBX 4 12 1 -3
BITMAP
00
00
00
70
80
E0
80
80
70
00
00
00
ENDCHAR
STARTCHAR C0007
ENCODING -1 7
SWIDTH 583 0
DWIDTH 7 0
BBX 6 12 0 -3
BITMAP
00
00
00
FC
48
48
48
48
48
00
00
00
ENDCHAR
STARTCHAR C0008
ENCODING -1 8
SWIDTH 583 0
DWIDTH 7 0
BBX 6 12 0 -3
BITMAP
00
C0
20
20
10
30
48
88
84
00
00
00
ENDCHAR
STARTCHAR C000C
ENCODING -1 12
SWIDTH 583 0
DWIDTH 7 0
BBX 6 12 0 -3
BITMAP
00
00
00
00
00
F0
10
10
10
54
38
10
ENDCHAR
STARTCHAR C000E
ENCODING -1 14
SWIDTH 583 0
DWIDTH 7 0
BBX 6 12 0 -3
BITMAP
00
00
00
00
48
B4
B4
48
00
00
00
00
ENDCHAR
STARTCHAR C000F
ENCODING -1 15
SWIDTH 583 0
DWIDTH 7 0
BBX 4 12 1 -3
BITMAP
00
70
40
20
70
90
90
90
60
00
00
00
ENDCHAR
STARTCHAR C0010
ENCODING -1 16
SWIDTH 583 0
DWIDTH 7 0
BBX 6 12 0 -3
BITMAP
00
00
00
7C
80
80
80
80
7C
00
00
00
ENDCHAR
STARTCHAR C0011
ENCODING -1 17
SWIDTH 583 0
DWIDTH 7 0
BBX 6 12 0 -3
BITMAP
00
00
00
F8
04
04
04
04
F8
00
00
00
ENDCHAR
STARTCHAR C0012
ENCODING -1 18
SWIDTH 583 0
DWIDTH 7 0
BBX 5 12 1 -3
BITMAP
00
70
88
88
88
88
88
88
88
00
00
00
ENDCHAR
STARTCHAR C0013
ENCODING -1 19
SWIDTH 583 0
DWIDTH 7 0
BBX 5 12 1 -3
BITMAP
00
88
88
88
88
88
88
88
70
00
00
00
ENDCHAR
STARTCHAR C0014
ENCODING -1 20
SWIDTH 583 0
DWIDTH 7 0
BBX 5 12 1 -3
BITMAP
00
88
88
F8
88
50
50
50
20
00
00
00
ENDCHAR
STARTCHAR C0015
ENCODING -1 21
SWIDTH 583 0
DWIDTH 7 0
BBX 5 12 1 -3
BITMAP
00
F8
08
08
78
08
08
08
F8
00
00
00
ENDCHAR
STARTCHAR C0016
ENCODING -1 22
SWIDTH 583 0
DWIDTH 7 0
BBX 5 12 1 -3
BITMAP
00
00
00
70
D8
A8
D8
70
00
00
00
00
ENDCHAR
STARTCHAR C0017
ENCODING -1 23
SWIDTH 583 0
DWIDTH 7 0
BBX 7 12 0 -3
BITMAP
00
00
00
28
44
FE
44
28
00
00
00
00
ENDCHAR
STARTCHAR C0018
ENCODING -1 24
SWIDTH 583 0
DWIDTH 7 0
BBX 7 12 0 -3
BITMAP
00
00
00
00
00
00
00
00
00
00
FE
00
ENDCHAR
STARTCHAR C0019
ENCODING -1 25
SWIDTH 583 0
DWIDTH 7 0
BBX 5 12 1 -3
BITMAP
00
00
00
20
10
F8
10
20
00
00
00
00
ENDCHAR
STARTCHAR C001A
ENCODING -1 26
SWIDTH 583 0
DWIDTH 7 0
BBX 6 12 0 -3
BITMAP
00
00
00
00
00
64
98
00
00
00
00
00
ENDCHAR
STARTCHAR C001B
ENCODING -1 27
SWIDTH 583 0
DWIDTH 7 0
BBX 5 12 1 -3
BITMAP
00
00
08
10
F8
20
F8
40
80
00
00
00
ENDCHAR
STARTCHAR C001C
ENCODING -1 28
SWIDTH 583 0
DWIDTH 7 0
BBX 6 12 0 -3
BITMAP
00
00
0C
30
C0
30
0C
00
FC
00
00
00
ENDCHAR
STARTCHAR C001D
ENCODING -1 29
SWIDTH 583 0
DWIDTH 7 0
BBX 6 12 0 -3
BITMAP
00
00
C0
30
0C
30
C0
00
FC
00
00
00
ENDCHAR
STARTCHAR C001E
ENCODING -1 30
SWIDTH 583 0
DWIDTH 7 0
BBX 5 12 1 -3
BITMAP
00
00
00
00
F8
00
F8
00
F8
00
00
00
ENDCHAR
STARTCHAR C001F
ENCODING -1 31
SWIDTH 583 0
DWIDTH 7 0
BBX 5 12 1 -3
BITMAP
00
00
00
88
88
50
50
20
20
00
00
00
ENDCHAR
STARTCHAR C0020
ENCODING -1 32
SWIDTH 583 0
DWIDTH 7 0
BBX 1 12 0 -3
BITMAP
00
00
00
00
00
00
00
00
00
00
00
00
ENDCHAR
STARTCHAR C0021
ENCODING -1 33
SWIDTH 583 0
DWIDTH 7 0
BBX 1 12 3 -3
BITMAP
00
80
80
80
80
80
00
80
80
00
00
00
ENDCHAR
STARTCHAR C0022
ENCODING -1 34
SWIDTH 583 0
DWIDTH 7 0
BBX 3 12 2 -3
BITMAP
00
A0
A0
A0
00
00
00
00
00
00
00
00
ENDCHAR
STARTCHAR C0023
ENCODING -1 35
SWIDTH 583 0
DWIDTH 7 0
BBX 7 12 0 -3
BITMAP
00
14
14
7E
28
28
FC
50
50
00
00
00
ENDCHAR
STARTCHAR C0024
ENCODING -1 36
SWIDTH 583 0
DWIDTH 7 0
BBX 5 12 1 -3
BITMAP
20
70
A8
A8
60
30
A8
A8
70
20
00
00
ENDCHAR
STARTCHAR C0025
ENCODING -1 37
SWIDTH 583 0
DWIDTH 7 0
BBX 7 12 0 -3
BITMAP
00
64
A8
C8
10
10
26
2A
4C
00
00
00
ENDCHAR
STARTCHAR C0026
ENCODING -1 38
SWIDTH 583 0
DWIDTH 7 0
BBX 6 12 1 -3
BITMAP
00
20
50
50
20
54
88
88
74
00
00
00
ENDCHAR
STARTCHAR C0027
ENCODING -1 39
SWIDTH 583 0
DWIDTH 7 0
BBX 2 12 2 -3
BITMAP
00
C0
40
40
80
00
00
00
00
00
00
00
ENDCHAR
STARTCHAR C0028
ENCODING -1 40
SWIDTH 583 0
DWIDTH 7 0
BBX 3 12 2 -3
BITMAP
00
20
40
40
80
80
80
80
80
40
40
20
ENDCHAR
STARTCHAR C0029
ENCODING -1 41
SWIDTH 583 0
DWIDTH 7 0
BBX 3 12 2 -3
BITMAP
00
80
40
40
20
20
20
20
20
40
40
80
ENDCHAR
STARTCHAR C002A
ENCODING -1 42
SWIDTH 583 0
DWIDTH 7 0
BBX 5 12 1 -3
BITMAP
00
20
A8
70
A8
20
00
00
00
00
00
00
ENDCHAR
STARTCHAR C002B
ENCODING -1 43
SWIDTH 583 0
DWIDTH 7 0
BBX 5 12 1 -3
BITMAP
00
00
00
20
20
F8
20
20
00
00
00
00
ENDCHAR
STARTCHAR C002C
ENCODING -1 44
SWIDTH 583 0
DWIDTH 7 0
BBX 2 12 2 -3
BITMAP
00
00
00
00
00
00
00
C0
40
40
80
00
ENDCHAR
STARTCHAR C002D
ENCODING -1 45
SWIDTH 583 0
DWIDTH 7 0
BBX 5 12 1 -3
BITMAP
00
00
00
00
00
F8
00
00
00
00
00
00
ENDCHAR
STARTCHAR C002E
ENCODING -1 46
SWIDTH 583 0
DWIDTH 7 0
BBX 1 12 3 -3
BITMAP
00
00
00
00
00
00
00
80
80
00
00
00
ENDCHAR
STARTCHAR C002F
ENCODING -1 47
SWIDTH 583 0
DWIDTH 7 0
BBX 4 12 2 -3
BITMAP
00
10
10
20
20
40
40
80
80
00
00
00
ENDCHAR
STARTCHAR C0030
ENCODING -1 48
SWIDTH 583 0
DWIDTH 7 0
BBX 5 12 1 -3
BITMAP
00
70
88
98
A8
A8
C8
88
70
00
00
00
ENDCHAR
STARTCHAR C0031
ENCODING -1 49
SWIDTH 583 0
DWIDTH 7 0
BBX 5 12 1 -3
BITMAP
00
20
60
A0
20
20
20
20
F8
00
00
00
ENDCHAR
STARTCHAR C0032
ENCODING -1 50
SWIDTH 583 0
DWIDTH 7 0
BBX 5 12 1 -3
BITMAP
00
70
88
88
10
20
40
80
F8
00
00
00
ENDCHAR
STARTCHAR C0033
ENCODING -1 51
SWIDTH 583 0
DWIDTH 7 0
BBX 5 12 1 -3
BITMAP
00
70
88
08
70
08
08
88
70
00
00
00
ENDCHAR
STARTCHAR C0034
ENCODING -1 52
SWIDTH 583 0
DWIDTH 7 0
BBX 5 12 1 -3
BITMAP
00
30
50
50
90
90
F8
10
10
00
00
00
ENDCHAR
STARTCHAR C0035
ENCODING -1 53
SWIDTH 583 0
DWIDTH 7 0
BBX 5 12 1 -3
BITMAP
00
F8
80
80
F0
88
08
88
70
00
00
00
ENDCHAR
STARTCHAR C0036
ENCODING -1 54
SWIDTH 583 0
DWIDTH 7 0
BBX 5 12 1 -3
BITMAP
00
70
88
80
F0
88
88
88
70
00
00
00
ENDCHAR
STARTCHAR C0037
ENCODING -1 55
SWIDTH 583 0
DWIDTH 7 0
BBX 5 12 1 -3
BITMAP
00
F8
08
10
10
20
20
40
40
00
00
00
ENDCHAR
STARTCHAR C0038
ENCODING -1 56
SWIDTH 583 0
DWIDTH 7 0
BBX 5 12 1 -3
BITMAP
00
70
88
88
70
88
88
88
70
00
00
00
ENDCHAR
STARTCHAR C0039
ENCODING -1 57
SWIDTH 583 0
DWIDTH 7 0
BBX 5 12 1 -3
BITMAP
00
70
88
88
88
78
08
88
70
00
00
00
ENDCHAR
STARTCHAR C003A
ENCODING -1 58
SWIDTH 583 0
DWIDTH 7 0
BBX 1 12 3 -3
BITMAP
00
00
00
80
80
00
00
80
80
00
00
00
ENDCHAR
STARTCHAR C003B
ENCODING -1 59
SWIDTH 583 0
DWIDTH 7 0
BBX 2 12 2 -3
BITMAP
00
00
00
40
40
00
00
C0
40
40
80
00
ENDCHAR
STARTCHAR C003C
ENCODING -1 60
SWIDTH 583 0
DWIDTH 7 0
BBX 6 12 0 -3
BITMAP
00
00
00
0C
30
C0
30
0C
00
00
00
00
ENDCHAR
STARTCHAR C003D
ENCODING -1 61
SWIDTH 583 0
DWIDTH 7 0
BBX 5 12 1 -3
BITMAP
00
00
00
00
F8
00
F8
00
00
00
00
00
ENDCHAR
STARTCHAR C003E
ENCODING -1 62
SWIDTH 583 0
DWIDTH 7 0
BBX 6 12 0 -3
BITMAP
00
00
00
C0
30
0C
30
C0
00
00
00
00
ENDCHAR
STARTCHAR C003F
ENCODING -1 63
SWIDTH 583 0
DWIDTH 7 0
BBX 5 12 1 -3
BITMAP
00
70
88
88
10
20
00
20
20
00
00
00
ENDCHAR
STARTCHAR C0040
ENCODING -1 64
SWIDTH 583 0
DWIDTH 7 0
BBX 5 12 1 -3
BITMAP
00
70
88
B8
A8
A8
B8
80
78
00
00
00
ENDCHAR
STARTCHAR C0041
ENCODING -1 65
SWIDTH 583 0
DWIDTH 7 0
BBX 5 12 1 -3
BITMAP
00
20
50
50
50
88
F8
88
88
00
00
00
ENDCHAR
STARTCHAR C0042
ENCODING -1 66
SWIDTH 583 0
DWIDTH 7 0
BBX 5 12 1 -3
BITMAP
00
E0
90
90
F0
88
88
88
F0
00
00
00
ENDCHAR
STARTCHAR C0043
ENCODING -1 67
SWIDTH 583 0
DWIDTH 7 0
BBX 5 12 1 -3
BITMAP
00
70
88
88
80
80
88
88
70
00
00
00
ENDCHAR
STARTCHAR C0044
ENCODING -1 68
SWIDTH 583 0
DWIDTH 7 0
BBX 5 12 1 -3
BITMAP
00
F0
88
88
88
88
88
88
F0
00
00
00
ENDCHAR
STARTCHAR C0045
ENCODING -1 69
SWIDTH 583 0
DWIDTH 7 0
BBX 5 12 1 -3
BITMAP
00
F8
80
80
F0
80
80
80
F8
00
00
00
ENDCHAR
STARTCHAR C0046
ENCODING -1 70
SWIDTH 583 0
DWIDTH 7 0
BBX 5 12 1 -3
BITMAP
00
F8
80
80
F0
80
80
80
80
00
00
00
ENDCHAR
STARTCHAR C0047
ENCODING -1 71
SWIDTH 583 0
DWIDTH 7 0
BBX 5 12 1 -3
BITMAP
00
70
88
88
80
B8
88
88
70
00
00
00
ENDCHAR
STARTCHAR C0048
ENCODING -1 72
SWIDTH 583 0
DWIDTH 7 0
BBX 5 12 1 -3
BITMAP
00
88
88
88
F8
88
88
88
88
00
00
00
ENDCHAR
STARTCHAR C0049
ENCODING -1 73
SWIDTH 583 0
DWIDTH 7 0
BBX 3 12 2 -3
BITMAP
00
E0
40
40
40
40
40
40
E0
00
00
00
ENDCHAR
STARTCHAR C004A
ENCODING -1 74
SWIDTH 583 0
DWIDTH 7 0
BBX 5 12 1 -3
BITMAP
00
38
08
08
08
08
88
88
70
00
00
00
ENDCHAR
STARTCHAR C004B
ENCODING -1 75
SWIDTH 583 0
DWIDTH 7 0
BBX 5 12 1 -3
BITMAP
00
88
90
A0
E0
90
90
88
88
00
00
00
ENDCHAR
STARTCHAR C004C
ENCODING -1 76
SWIDTH 583 0
DWIDTH 7 0
BBX 5 12 1 -3
BITMAP
00
80
80
80
80
80
80
80
F8
00
00
00
ENDCHAR
STARTCHAR C004D
ENCODING -1 77
SWIDTH 583 0
DWIDTH 7 0
BBX 5 12 1 -3
BITMAP
00
88
D8
D8
A8
A8
A8
A8
88
00
00
00
ENDCHAR
STARTCHAR C004E
ENCODING -1 78
SWIDTH 583 0
DWIDTH 7 0
BBX 5 12 1 -3
BITMAP
00
88
C8
C8
A8
A8
98
98
88
00
00
00
ENDCHAR
STARTCHAR C004F
ENCODING -1 79
SWIDTH 583 0
DWIDTH 7 0
BBX 5 12 1 -3
BITMAP
00
70
88
88
88
88
88
88
70
00
00
00
ENDCHAR
STARTCHAR C0050
ENCODING -1 80
SWIDTH 583 0
DWIDTH 7 0
BBX 5 12 1 -3
BITMAP
00
F0
88
88
88
F0
80
80
80
00
00
00
ENDCHAR
STARTCHAR C0051
ENCODING -1 81
SWIDTH 583 0
DWIDTH 7 0
BBX 5 12 1 -3
BITMAP
00
70
88
88
88
88
88
88
70
20
18
00
ENDCHAR
STARTCHAR C0052
ENCODING -1 82
SWIDTH 583 0
DWIDTH 7 0
BBX 5 12 1 -3
BITMAP
00
F0
88
88
F0
A0
90
88
88
00
00
00
ENDCHAR
STARTCHAR C0053
ENCODING -1 83
SWIDTH 583 0
DWIDTH 7 0
BBX 5 12 1 -3
BITMAP
00
70
88
88
60
10
88
88
70
00
00
00
ENDCHAR
STARTCHAR C0054
ENCODING -1 84
SWIDTH 583 0
DWIDTH 7 0
BBX 5 12 1 -3
BITMAP
00
F8
20
20
20
20
20
20
20
00
00
00
ENDCHAR
STARTCHAR C0055
ENCODING -1 85
SWIDTH 583 0
DWIDTH 7 0
BBX 5 12 1 -3
BITMAP
00
88
88
88
88
88
88
88
70
00
00
00
ENDCHAR
STARTCHAR C0056
ENCODING -1 86
SWIDTH 583 0
DWIDTH 7 0
BBX 5 12 1 -3
BITMAP
00
88
88
88
50
50
50
20
20
00
00
00
ENDCHAR
STARTCHAR C0057
ENCODING -1 87
SWIDTH 583 0
DWIDTH 7 0
BBX 5 12 1 -3
BITMAP
00
88
88
A8
A8
A8
50
50
50
00
00
00
ENDCHAR
STARTCHAR C0058
ENCODING -1 88
SWIDTH 583 0
DWIDTH 7 0
BBX 5 12 1 -3
BITMAP
00
88
88
50
20
20
50
88
88
00
00
00
ENDCHAR
STARTCHAR C0059
ENCODING -1 89
SWIDTH 583 0
DWIDTH 7 0
BBX 5 12 1 -3
BITMAP
00
88
88
50
50
20
20
20
20
00
00
00
ENDCHAR
STARTCHAR C005A
ENCODING -1 90
SWIDTH 583 0
DWIDTH 7 0
BBX 5 12 1 -3
BITMAP
00
F8
08
10
20
20
40
80
F8
00
00
00
ENDCHAR
STARTCHAR C005B
ENCODING -1 91
SWIDTH 583 0
DWIDTH 7 0
BBX 3 12 2 -3
BITMAP
00
E0
80
80
80
80
80
80
80
80
80
E0
ENDCHAR
STARTCHAR C005C
ENCODING -1 92
SWIDTH 583 0
DWIDTH 7 0
BBX 4 12 2 -3
BITMAP
00
80
80
40
40
20
20
10
10
00
00
00
ENDCHAR
STARTCHAR C005D
ENCODING -1 93
SWIDTH 583 0
DWIDTH 7 0
BBX 3 12 2 -3
BITMAP
00
E0
20
20
20
20
20
20
20
20
20
E0
ENDCHAR
STARTCHAR C005E
ENCODING -1 94
SWIDTH 583 0
DWIDTH 7 0
BBX 5 12 1 -3
BITMAP
00
00
00
20
70
A8
20
20
20
00
00
00
ENDCHAR
STARTCHAR C005F
ENCODING -1 95
SWIDTH 583 0
DWIDTH 7 0
BBX 5 12 1 -3
BITMAP
00
00
00
20
40
F8
40
20
00
00
00
00
ENDCHAR
STARTCHAR C0060
ENCODING -1 96
SWIDTH 583 0
DWIDTH 7 0
BBX 2 12 2 -3
BITMAP
00
C0
80
80
40
00
00
00
00
00
00
00
ENDCHAR
STARTCHAR C0061
ENCODING -1 97
SWIDTH 583 0
DWIDTH 7 0
BBX 5 12 1 -3
BITMAP
00
00
00
70
08
78
88
88
78
00
00
00
ENDCHAR
STARTCHAR C0062
ENCODING -1 98
SWIDTH 583 0
DWIDTH 7 0
BBX 5 12 1 -3
BITMAP
00
80
80
B0
C8
88
88
C8
B0
00
00
00
ENDCHAR
STARTCHAR C0063
ENCODING -1 99
SWIDTH 583 0
DWIDTH 7 0
BBX 5 12 1 -3
BITMAP
00
00
00
70
88
80
80
88
70
00
00
00
ENDCHAR
STARTCHAR C0064
ENCODING -1 100
SWIDTH 583 0
DWIDTH 7 0
BBX 5 12 1 -3
BITMAP
00
08
08
68
98
88
88
98
68
00
00
00
ENDCHAR
STARTCHAR C0065
ENCODING -1 101
SWIDTH 583 0
DWIDTH 7 0
BBX 5 12 1 -3
BITMAP
00
00
00
70
88
F8
80
88
70
00
00
00
ENDCHAR
STARTCHAR C0066
ENCODING -1 102
SWIDTH 583 0
DWIDTH 7 0
BBX 5 12 1 -3
BITMAP
00
38
40
F0
40
40
40
40
40
00
00
00
ENDCHAR
STARTCHAR C0067
ENCODING -1 103
SWIDTH 583 0
DWIDTH 7 0
BBX 5 12 1 -3
BITMAP
00
00
00
68
98
88
88
98
68
08
70
00
ENDCHAR
STARTCHAR C0068
ENCODING -1 104
SWIDTH 583 0
DWIDTH 7 0
BBX 5 12 1 -3
BITMAP
00
80
80
B0
C8
88
88
88
88
00
00
00
ENDCHAR
STARTCHAR C0069
ENCODING -1 105
SWIDTH 583 0
DWIDTH 7 0
BBX 3 12 2 -3
BITMAP
00
20
00
E0
20
20
20
20
20
00
00
00
ENDCHAR
STARTCHAR C006A
ENCODING -1 106
SWIDTH 583 0
DWIDTH 7 0
BBX 4 12 1 -3
BITMAP
00
10
00
70
10
10
10
10
10
90
60
00
ENDCHAR
STARTCHAR C006B
ENCODING -1 107
SWIDTH 583 0
DWIDTH 7 0
BBX 5 12 1 -3
BITMAP
00
80
80
90
A0
C0
A0
90
88
00
00
00
ENDCHAR
STARTCHAR C006C
ENCODING -1 108
SWIDTH 583 0
DWIDTH 7 0
BBX 3 12 2 -3
BITMAP
00
E0
20
20
20
20
20
20
20
00
00
00
ENDCHAR
STARTCHAR C006D
ENCODING -1 109
SWIDTH 583 0
DWIDTH 7 0
BBX 5 12 1 -3
BITMAP
00
00
00
D8
A8
A8
A8
A8
A8
00
00
00
ENDCHAR
STARTCHAR C006E
ENCODING -1 110
SWIDTH 583 0
DWIDTH 7 0
BBX 5 12 1 -3
BITMAP
00
00
00
B0
C8
88
88
88
88
00
00
00
ENDCHAR
STARTCHAR C006F
ENCODING -1 111
SWIDTH 583 0
DWIDTH 7 0
BBX 5 12 1 -3
BITMAP
00
00
00
70
88
88
88
88
70
00
00
00
ENDCHAR
STARTCHAR C0070
ENCODING -1 112
SWIDTH 583 0
DWIDTH 7 0
BBX 5 12 1 -3
BITMAP
00
00
00
B0
C8
88
88
C8
B0
80
80
00
ENDCHAR
STARTCHAR C0071
ENCODING -1 113
SWIDTH 583 0
DWIDTH 7 0
BBX 5 12 1 -3
BITMAP
00
00
00
68
98
88
88
98
68
08
08
00
ENDCHAR
STARTCHAR C0072
ENCODING -1 114
SWIDTH 583 0
DWIDTH 7 0
BBX 5 12 1 -3
BITMAP
00
00
00
B0
C8
80
80
80
80
00
00
00
ENDCHAR
STARTCHAR C0073
ENCODING -1 115
SWIDTH 583 0
DWIDTH 7 0
BBX 5 12 1 -3
BITMAP
00
00
00
70
88
60
10
88
70
00
00
00
ENDCHAR
STARTCHAR C0074
ENCODING -1 116
SWIDTH 583 0
DWIDTH 7 0
BBX 5 12 1 -3
BITMAP
00
00
40
F0
40
40
40
48
30
00
00
00
ENDCHAR
STARTCHAR C0075
ENCODING -1 117
SWIDTH 583 0
DWIDTH 7 0
BBX 5 12 1 -3
BITMAP
00
00
00
88
88
88
88
98
68
00
00
00
ENDCHAR
STARTCHAR C0076
ENCODING -1 118
SWIDTH 583 0
DWIDTH 7 0
BBX 5 12 1 -3
BITMAP
00
00
00
88
88
50
50
20
20
00
00
00
ENDCHAR
STARTCHAR C0077
ENCODING -1 119
SWIDTH 583 0
DWIDTH 7 0
BBX 5 12 1 -3
BITMAP
00
00
00
88
88
A8
A8
50
50
00
00
00
ENDCHAR
STARTCHAR C0078
ENCODING -1 120
SWIDTH 583 0
DWIDTH 7 0
BBX 5 12 1 -3
BITMAP
00
00
00
88
50
20
20
50
88
00
00
00
ENDCHAR
STARTCHAR C0079
ENCODING -1 121
SWIDTH 583 0
DWIDTH 7 0
BBX 5 12 1 -3
BITMAP
00
00
00
88
88
88
50
50
20
20
C0
00
ENDCHAR
STARTCHAR C007A
ENCODING -1 122
SWIDTH 583 0
DWIDTH 7 0
BBX 5 12 1 -3
BITMAP
00
00
00
F8
10
20
20
40
F8
00
00
00
ENDCHAR
STARTCHAR C007B
ENCODING -1 123
SWIDTH 583 0
DWIDTH 7 0
BBX 5 12 1 -3
BITMAP
00
18
20
20
20
20
C0
20
20
20
20
18
ENDCHAR
STARTCHAR C007C
ENCODING -1 124
SWIDTH 583 0
DWIDTH 7 0
BBX 1 12 3 -3
BITMAP
00
80
80
80
80
80
80
80
80
80
80
80
ENDCHAR
STARTCHAR C007D
ENCODING -1 125
SWIDTH 583 0
DWIDTH 7 0
BBX 5 12 1 -3
BITMAP
00
C0
20
20
20
20
18
20
20
20
20
C0
ENDCHAR
STARTCHAR C007E
ENCODING -1 126
SWIDTH 583 0
DWIDTH 7 0
BBX 5 12 1 -3
BITMAP
00
C0
20
20
20
20
18
20
20
20
20
C0
ENDCHAR
ENDFONT
